HIERARCHY
ROOT Hips
{
	OFFSET 0.000000 0.000000 0.000000 
	CHANNELS 6 Xposition Yposition Zposition Zrotation Yrotation Xrotation
	JOINT LeftUpLeg
	{
		OFFSET 0.000000 0.000000 0.000000 
		CHANNELS 3 Zrotation Yrotation Xrotation
		JOINT LeftLeg
		{
			OFFSET 3.811170 -8.520760 0.839290 
			CHANNELS 3 Zrotation Yrotation Xrotation
			JOINT LeftFoot
			{
				OFFSET 2.562200 -7.039590 0.000000 
				CHANNELS 3 Zrotation Yrotation Xrotation
				JOINT LeftToeBase
				{
					OFFSET 0.157640 -0.433110 2.322550 
					CHANNELS 3 Zrotation Yrotation Xrotation
					End Site
					{
						OFFSET 0.000000 0.000000 0.000000 
					}
				}
			}
		}
	}
	JOINT RigthUpLeg
	{
		OFFSET 0.000000 0.000000 0.000000 
		CHANNELS 3 Zrotation Yrotation Xrotation
		JOINT RightLeg
		{
			OFFSET -3.848050 -8.780180 0.839290 
			CHANNELS 3 Zrotation Yrotation Xrotation
			JOINT RightFoot
			{
				OFFSET -2.568260 -7.056230 0.000000 
				CHANNELS 3 Zrotation Yrotation Xrotation
				JOINT RightToeBase
				{
					OFFSET -0.164730 -0.452590 2.363150 
					CHANNELS 3 Zrotation Yrotation Xrotation
					End Site
					{
						OFFSET 0.000000 0.000000 0.000000 
					}
				}
			}
		}
	}
	JOINT Spine
	{
		OFFSET 0.028270 2.035590 -0.193380 
		CHANNELS 3 Zrotation Yrotation Xrotation
		JOINT Spine1
		{
			OFFSET 0.056720 2.048850 -0.042750 
			CHANNELS 3 Zrotation Yrotation Xrotation
			JOINT Neck1
			{
				OFFSET -0.054170 1.746240 0.172020 
				CHANNELS 3 Zrotation Yrotation Xrotation
				JOINT Head
				{
					OFFSET 0.104070 1.761360 -0.123970 
					CHANNELS 3 Zrotation Yrotation Xrotation
					End Site
					{
						OFFSET 0.000000 0.000000 0.000000 
					}
				}
			}
			JOINT LeftArm
			{
				OFFSET 3.362410 1.200890 -0.311210 
				CHANNELS 3 Zrotation Yrotation Xrotation
				JOINT LeftForeArm
				{
					OFFSET 4.983000 -0.000000 -0.000000 
					CHANNELS 3 Zrotation Yrotation Xrotation
					JOINT LeftHand
					{
						OFFSET 3.483560 -0.000000 -0.000000 
						CHANNELS 3 Zrotation Yrotation Xrotation
						JOINT LeftHandIndex1
						{
							OFFSET 0.715260 -0.000000 -0.000000 
							CHANNELS 3 Zrotation Yrotation Xrotation
							End Site
							{
								OFFSET 0.000000 0.000000 0.000000 
							}
						}
					}
				}
			}
			JOINT RightArm
			{
				OFFSET -3.136600 1.374050 -0.404650 
				CHANNELS 3 Zrotation Yrotation Xrotation
				JOINT RightForeArm
				{
					OFFSET -5.241900 -0.000000 -0.000000 
					CHANNELS 3 Zrotation Yrotation Xrotation
					JOINT RightHand
					{
						OFFSET -3.444170 -0.000000 -0.000000 
						CHANNELS 3 Zrotation Yrotation Xrotation
						JOINT RightHandIndex1
						{
							OFFSET -0.622530 -0.000000 -0.000000 
							CHANNELS 3 Zrotation Yrotation Xrotation
							End Site
							{
								OFFSET 0.000000 0.000000 0.000000 
							}
						}
					}
				}
			}
		}
	}
}
MOTION
Frames: 13
Frame Time: 0.008333
-2.459858 14.507683 5.742495 170.276443 -42.221558 178.379807 -56.870177 -20.104282 -48.208476 -19.983892 -4.101584 23.871832 -24.912722 13.985612 -16.593701 -8.537570 -7.702672 -7.963703 -23.348408 -17.364440 29.581197 76.695006 -7.166764 -19.418970 32.271567 4.554971 -91.780767 -7.144989 -0.436159 3.433061 7.633464 15.681862 -4.139832 7.931580 -1.168734 -11.547670 -0.163892 -1.504257 4.802699 1.747607 5.435596 7.283104 -63.399518 -10.085366 2.656379 -4.694349 -64.399246 5.653580 -7.758748 -1.712110 -9.842374 5.778021 -9.856169 3.906773 113.802933 9.888246 41.539084 54.375544 85.155897 178.616130 -7.980973 -7.593065 7.696533 5.171950 4.923677 1.364646
-2.541255 14.517689 5.701934 170.337723 -39.876362 178.507690 -44.342481 -15.750232 -51.956478 -6.759405 0.465129 32.067624 -16.088369 10.166553 -17.068825 6.466060 6.921269 -6.587723 -21.105857 -7.771695 26.597441 74.253899 -11.049226 -28.028414 33.346111 3.416213 -86.361275 -1.258989 1.996367 -4.193135 -3.741805 8.829255 7.397644 8.151272 -0.715414 -9.288623 5.235000 8.964262 6.147111 -0.376994 -2.428663 7.331158 -63.022866 -7.882828 1.905355 3.863933 -66.366862 -1.154343 -7.776894 6.484281 1.983700 7.520413 -0.711318 -9.637343 112.800199 16.190724 56.654967 48.186959 76.275486 176.157869 5.923283 -7.552117 -3.794510 0.542795 7.752782 -0.344078
-2.618448 14.527208 5.658350 170.375656 -37.557163 178.634201 -51.302019 -20.588823 -48.317523 -5.531071 6.156992 38.124009 -10.765995 6.345380 -20.352653 2.051563 -9.409610 8.636540 -13.678443 -13.090901 27.713586 87.217458 -20.120093 -17.368644 43.469254 1.242691 -103.545949 5.587225 -4.425136 9.168824 -6.357528 10.594340 2.256237 1.197981 -9.674163 -6.443246 -3.048883 -0.407606 5.260649 -1.965948 -8.395473 2.212810 -57.185305 4.694785 3.229580 -8.467506 -70.530112 5.467684 0.639044 -3.899202 -3.561393 -5.014675 6.193715 2.156979 123.014176 19.926822 54.390073 52.622243 80.209078 -173.642893 -8.108753 5.775067 -3.676988 6.723580 1.760068 2.283559
-2.691251 14.536220 5.611611 170.386566 -35.262676 178.753448 -35.084191 -10.651955 -50.897910 -11.751710 1.525326 28.032581 -13.018018 7.361863 -17.331087 5.677000 -3.789031 5.056206 -13.795601 -14.555514 18.845490 83.932028 -8.666714 -29.628818 35.688017 -0.741024 -101.380212 -6.980730 -8.305784 -4.062796 7.518546 4.906845 7.909320 4.998788 -11.770227 7.099964 3.200036 -3.408319 -5.756650 -5.779231 3.231344 9.877184 -60.348727 6.182476 3.922697 6.093663 -69.248809 -3.258134 2.428223 -2.205428 5.008641 -6.570112 -8.900100 -9.616621 118.240305 21.846961 44.829075 59.437547 77.568906 -175.632977 9.761210 -9.412950 -2.441290 2.785938 -0.131514 4.251274
-2.764054 14.545231 5.564871 170.413406 -32.941769 178.892181 -50.326395 -6.694556 -42.330550 -10.834184 2.743662 31.722384 -18.379520 7.365817 -5.301949 -2.817256 6.494008 4.179867 -9.779991 -15.578958 20.798157 85.213780 -12.972694 -15.421859 41.655279 -6.614619 -100.173728 -9.092918 1.705271 1.442384 7.481502 0.942755 -3.709642 8.159098 2.094549 -7.603255 -2.281386 -4.205549 9.808517 -6.574983 -2.083346 9.308927 -68.099317 0.508840 2.048993 -6.967105 -60.444818 -0.104454 -6.127182 2.333376 3.014524 3.725079 7.297970 -5.047368 119.030479 25.771402 45.810584 67.433185 89.495178 -176.092538 1.678906 2.354148 5.952288 2.806730 3.877759 -2.819784
-2.836857 14.554243 5.518131 170.454636 -30.603720 179.049667 -38.783251 -3.341258 -42.092525 -6.419032 -0.935244 27.179403 -18.467193 0.965587 -6.324687 -7.010942 -5.425662 6.454581 -9.246545 -6.485122 25.606613 68.421982 -12.764436 -33.130208 24.772915 5.353360 -87.666025 -3.433363 -7.301141 -4.398773 -5.885278 -0.411487 6.149649 5.370101 -10.537184 1.833582 0.294699 2.067854 -2.594557 4.928466 -7.858300 -3.034114 -68.891274 -8.778761 -5.589637 -14.117204 -77.424541 -3.390309 1.092247 -3.324067 -8.998682 -2.324595 0.790374 -1.360314 127.250806 19.118181 47.553622 68.345246 76.908320 171.264702 6.837530 -0.638175 -7.816973 -9.068536 -6.196637 2.267325
-2.906213 14.562422 5.467940 170.488632 -28.315804 179.197021 -47.725434 -7.564452 -58.257153 1.186193 -7.200058 28.373277 -0.028096 -0.051134 -13.376030 2.391168 2.160816 -7.626013 -8.109051 -16.755926 14.789486 84.106050 -7.374623 -21.295925 29.279190 7.327175 -102.570498 -7.702165 -6.221101 4.375075 0.415708 13.832759 8.201938 -8.534260 -3.859268 5.238785 -4.322342 7.169533 0.431206 -3.384883 -2.216521 8.810456 -64.368281 1.224132 0.794159 -12.117544 -65.210893 7.701392 6.183427 -3.361066 8.301378 -0.779666 -6.703076 0.059196 121.536876 8.646750 43.354780 51.787684 73.998961 -178.704968 2.236271 0.763714 9.659798 3.764826 -4.914671 -7.952600
-2.971644 14.569655 5.413820 170.512299 -26.077612 179.326004 -30.788916 0.538937 -52.984509 -4.078354 4.418316 20.254325 -6.684001 -4.462830 0.187224 4.693378 1.040915 8.578180 -15.888682 -12.387094 24.815020 81.159613 -18.678657 -21.566795 30.784634 0.371619 -99.250380 2.936889 -3.212582 -8.924421 4.809527 4.202594 -8.313418 -3.772441 -7.132170 -4.515853 5.680520 -3.686435 7.839119 -2.036614 8.153601 -1.048850 -63.976503 1.436493 -10.362820 -10.672644 -68.233137 9.607239 7.284572 -0.968232 -5.011844 -3.895453 4.213878 -9.157818 124.639080 27.254967 42.168626 56.347270 78.399059 171.769318 4.469705 -6.367686 -7.705689 -7.045755 9.200641 1.616821
-3.037075 14.576888 5.359700 170.548111 -23.823706 179.467407 -38.471347 -12.757532 -56.547864 -0.649325 1.672742 27.695069 -2.690708 -13.219093 -2.450956 -6.707142 -6.534344 -1.770636 -12.979476 -7.401292 19.212802 68.394550 -15.035367 -25.733978 43.038690 -4.604823 -95.616765 8.528820 9.182255 -3.107078 -4.739444 12.652940 4.759203 8.356963 -2.538751 6.366669 -0.830712 -7.460844 -4.237199 3.834228 8.620657 4.463393 -56.978483 -8.438251 -11.527474 -11.868406 -68.884374 -8.435266 7.533022 4.643289 -2.668482 7.509510 -7.217778 -6.973157 127.457621 14.006466 43.151626 68.328943 89.170622 170.380514 -5.639131 -9.637054 0.115961 0.079401 2.460664 8.216996
-3.102506 14.584121 5.305580 170.595444 -21.561075 179.621628 -37.925351 -11.490714 -57.959636 2.066767 -3.655201 31.708578 -6.226307 2.898809 -6.481074 -6.893457 2.436374 -9.414689 -16.603778 -9.795129 24.148116 77.614574 -22.167217 -32.456554 33.610894 8.917575 -88.624572 -5.913843 -3.971759 -7.149800 -4.633102 -3.841052 -10.736048 1.257892 7.264738 -0.335110 3.292398 0.651293 -5.408950 -2.685781 2.336157 9.117297 -61.279006 -8.944852 -0.752838 -18.161872 -77.133116 -6.600820 5.520749 9.263483 3.161917 0.804603 -3.101932 -6.908893 119.448654 28.786800 45.823747 54.715445 74.583665 -174.060451 -1.671934 2.328837 6.199198 -7.122223 -8.599829 5.198934
-3.164959 14.590025 5.247998 170.648514 -19.354546 179.764572 -31.165190 -10.830483 -43.931112 -0.387786 7.537816 29.202089 -7.335986 -12.267699 -12.081071 -5.781411 -2.047279 -2.681510 -8.403545 -5.787521 26.443284 76.821239 -2.841471 -12.540909 27.238291 -7.644593 -90.191933 6.860612 1.998200 -7.557337 -3.313595 1.616962 1.164428 8.764495 6.933438 0.966262 -0.065952 -3.356769 9.790828 0.779816 -2.466237 -3.913217 -61.210332 5.790501 -1.212284 -7.613598 -77.179788 2.262574 8.699917 -2.563817 1.663300 -9.420043 -9.146127 -1.513879 119.522037 14.344465 42.936760 67.435879 78.055628 179.945367 -6.697192 -7.833686 -1.090087 1.741136 3.537431 -8.771802
-3.223714 14.594278 5.186116 170.707199 -17.209396 179.888474 -42.668279 -9.001568 -49.461590 -2.246000 -3.617802 21.554153 4.337088 -11.770146 -13.096965 -0.808942 -7.030917 -6.992519 -20.343566 -13.748931 8.780182 79.340015 -13.442951 -20.825997 36.703936 8.923179 -88.287305 1.756618 -8.778970 -4.791551 -1.121766 -2.687884 5.211216 -7.412917 0.960260 2.782022 8.780122 0.275312 -5.552899 -0.300966 -6.748677 3.347428 -53.766214 -10.499032 -4.159176 -1.554980 -69.218000 -8.830007 -9.600129 -8.876207 8.907604 3.569744 5.319993 9.412054 108.999700 15.663453 39.865304 75.195641 80.170339 -173.586750 6.479666 9.655555 -2.495520 -7.515041 1.417669 -7.689567
-3.282469 14.598531 5.124234 170.778320 -15.053505 180.023529 -38.786155 -3.839315 -60.418909 -7.672493 10.960913 36.695657 7.086527 0.811399 -5.147069 7.691097 6.290769 -8.760258 -14.328862 -7.992063 25.550046 80.148828 -7.768291 -15.228319 41.063688 -7.698811 -94.413755 -4.098873 2.086416 -0.550005 10.676466 1.691606 4.262882 -5.888310 0.170486 6.299161 0.404905 -9.200606 4.109148 8.624229 9.764913 -4.761395 -52.616208 -7.221511 6.315766 -5.930806 -80.426006 5.079860 5.236403 -3.438940 6.958610 -0.148077 -2.510274 -8.938844 126.503324 27.802950 58.029955 59.861582 85.474521 176.834943 -6.507458 4.764592 -5.476111 5.056282 4.273507 -7.785436
